<svg version="1.1" id="ecommerce_1_" xmlns="http://www.w3.org/2000/svg" x="0" y="0" viewBox="0 0 115 115" style="enable-background:new 0 0 115 115" xml:space="preserve"><style>.st0{fill:#ffeead}.st4{fill:#96ceb4}.st7{fill:#71a58a}</style><g id="mens_clothing_1_"><path class="st0" d="M97.412 28.393s-5.87 49.556-4.263 49.086C94.756 77.009 115 66.466 115 66.466L97.412 28.393z"/><path class="st7" d="M95.813 24.938s-6.628 47.865-5.021 47.395c1.607-.47 21.851-11.014 21.851-11.014l-16.83-36.381z"/><path class="st0" d="M17.583 28.831 0 66.466S20.244 77.01 21.851 77.48c1.607.469-4.268-48.649-4.268-48.649z"/><path class="st7" d="M19.302 25.163 2.357 61.422s20.244 10.441 21.851 10.911c1.606.47-4.906-47.17-4.906-47.17z"/><path d="M84.962 18.218H30.264c-6.675 0-12.135 5.461-12.135 12.135v62.152c0 6.675 5.461 12.135 12.135 12.135h54.698c6.675 0 12.135-5.461 12.135-12.135V30.353c0-6.674-5.461-12.135-12.135-12.135z" style="fill:#ff6f69"/><path class="st0" d="M18.128 30.353h78.945v3.597H18.128zM18.128 39.921h78.945v3.597H18.128zM18.128 49.488h78.945v3.597H18.128zM18.128 59.056h78.945v3.597H18.128zM18.128 68.623h78.945v3.597H18.128zM18.128 78.191h78.945v3.597H18.128zM18.128 87.758h78.945v3.597H18.128z"/><path class="st7" d="M31.437 18.231c2.23 7.623 13.088 13.414 26.176 13.414s23.945-5.79 26.176-13.414H31.437z"/><path class="st7" d="M36.698 10.359h41.824v8.01H36.698z"/><path d="M37.208 18.218c0 5.649 9.136 10.229 20.405 10.229s20.405-4.58 20.405-10.229h-40.81z" style="fill:#e05858"/><path class="st7" d="M54.575 31.46h6.076v31.193h-6.076z"/><path class="st4" d="m36.698 10.359-4.229 7.858 11.575 12.474c1.801 1.948 5.029 1.268 5.891-1.241l2.677-7.792-15.914-11.299z"/><path class="st7" d="m52.612 21.659-2.275 6.621 6.603 3.18z"/><g><path class="st4" d="m78.527 10.359-15.915 11.3 2.677 7.792c.862 2.509 4.09 3.189 5.891 1.241l11.561-12.474-4.214-7.859z"/><path class="st7" d="m62.613 21.659-4.328 9.801 6.603-3.18z"/></g><g><path class="st4" d="M66.361 46.846v16.685a8.418 8.418 0 0 0 8.418 8.418h5.176a8.418 8.418 0 0 0 8.418-8.418V46.846H66.361z"/></g></g></svg>